<?xml version="1.0" encoding="UTF-8"?>
<svg version="1.1" xmlns="http://www.w3.org/2000/svg" width="256" height="256">
<path d="M0 0 C2.64 0 5.28 0 8 0 C8 1.32 8 2.64 8 4 C9.32 4 10.64 4 12 4 C12 10.6 12 17.2 12 24 C15.96 24 19.92 24 24 24 C24 22.68 24 21.36 24 20 C34.56 20 45.12 20 56 20 C56 21.32 56 22.64 56 24 C59.96 24 63.92 24 68 24 C68 17.4 68 10.8 68 4 C69.32 4 70.64 4 72 4 C72 2.68 72 1.36 72 0 C74.64 0 77.28 0 80 0 C80 1.32 80 2.64 80 4 C81.32 4 82.64 4 84 4 C84 5.32 84 6.64 84 8 C85.32 8 86.64 8 88 8 C88 9.32 88 10.64 88 12 C89.32 12 90.64 12 92 12 C92 18.6 92 25.2 92 32 C93.32 32 94.64 32 96 32 C96 33.32 96 34.64 96 36 C98.64 36 101.28 36 104 36 C104 37.32 104 38.64 104 40 C110.6 40 117.2 40 124 40 C124 41.32 124 42.64 124 44 C125.32 44 126.64 44 128 44 C128 46.64 128 49.28 128 52 C126.68 52 125.36 52 124 52 C124 53.32 124 54.64 124 56 C122.68 56 121.36 56 120 56 C120 57.32 120 58.64 120 60 C118.68 60 117.36 60 116 60 C116 61.32 116 62.64 116 64 C114.68 64 113.36 64 112 64 C112 65.32 112 66.64 112 68 C109.36 68 106.72 68 104 68 C104 69.32 104 70.64 104 72 C101.36 72 98.72 72 96 72 C96 74.64 96 77.28 96 80 C94.68 80 93.36 80 92 80 C92 83.96 92 87.92 92 92 C93.32 92 94.64 92 96 92 C96 93.32 96 94.64 96 96 C97.32 96 98.64 96 100 96 C100 97.32 100 98.64 100 100 C101.32 100 102.64 100 104 100 C104 102.64 104 105.28 104 108 C105.32 108 106.64 108 108 108 C108 118.56 108 129.12 108 140 C106.68 140 105.36 140 104 140 C104 142.64 104 145.28 104 148 C102.68 148 101.36 148 100 148 C100 149.32 100 150.64 100 152 C98.68 152 97.36 152 96 152 C96 153.32 96 154.64 96 156 C93.36 156 90.72 156 88 156 C88 157.32 88 158.64 88 160 C56.32 160 24.64 160 -8 160 C-8 158.68 -8 157.36 -8 156 C-10.64 156 -13.28 156 -16 156 C-16 154.68 -16 153.36 -16 152 C-17.32 152 -18.64 152 -20 152 C-20 150.68 -20 149.36 -20 148 C-21.32 148 -22.64 148 -24 148 C-24 145.36 -24 142.72 -24 140 C-25.32 140 -26.64 140 -28 140 C-28 129.44 -28 118.88 -28 108 C-26.68 108 -25.36 108 -24 108 C-24 105.36 -24 102.72 -24 100 C-22.68 100 -21.36 100 -20 100 C-20 98.68 -20 97.36 -20 96 C-18.68 96 -17.36 96 -16 96 C-16 94.68 -16 93.36 -16 92 C-14.68 92 -13.36 92 -12 92 C-12 88.04 -12 84.08 -12 80 C-13.32 80 -14.64 80 -16 80 C-16 77.36 -16 74.72 -16 72 C-18.64 72 -21.28 72 -24 72 C-24 70.68 -24 69.36 -24 68 C-26.64 68 -29.28 68 -32 68 C-32 66.68 -32 65.36 -32 64 C-33.32 64 -34.64 64 -36 64 C-36 62.68 -36 61.36 -36 60 C-37.32 60 -38.64 60 -40 60 C-40 58.68 -40 57.36 -40 56 C-41.32 56 -42.64 56 -44 56 C-44 54.68 -44 53.36 -44 52 C-45.32 52 -46.64 52 -48 52 C-48 49.36 -48 46.72 -48 44 C-46.68 44 -45.36 44 -44 44 C-44 42.68 -44 41.36 -44 40 C-37.4 40 -30.8 40 -24 40 C-24 38.68 -24 37.36 -24 36 C-21.36 36 -18.72 36 -16 36 C-16 34.68 -16 33.36 -16 32 C-14.68 32 -13.36 32 -12 32 C-12 25.4 -12 18.8 -12 12 C-10.68 12 -9.36 12 -8 12 C-8 10.68 -8 9.36 -8 8 C-6.68 8 -5.36 8 -4 8 C-4 6.68 -4 5.36 -4 4 C-2.68 4 -1.36 4 0 4 C0 2.68 0 1.36 0 0 Z " fill="#F5EAB0" transform="translate(88,44)"/>
<path d="M0 0 C31.68 0 63.36 0 96 0 C96 1.32 96 2.64 96 4 C99.96 4 103.92 4 108 4 C108 5.32 108 6.64 108 8 C109.32 8 110.64 8 112 8 C112 10.64 112 13.28 112 16 C113.32 16 114.64 16 116 16 C116 26.56 116 37.12 116 48 C114.68 48 113.36 48 112 48 C112 50.64 112 53.28 112 56 C110.68 56 109.36 56 108 56 C108 57.32 108 58.64 108 60 C106.68 60 105.36 60 104 60 C104 61.32 104 62.64 104 64 C101.36 64 98.72 64 96 64 C96 65.32 96 66.64 96 68 C64.32 68 32.64 68 0 68 C0 66.68 0 65.36 0 64 C-2.64 64 -5.28 64 -8 64 C-8 62.68 -8 61.36 -8 60 C-9.32 60 -10.64 60 -12 60 C-12 58.68 -12 57.36 -12 56 C-13.32 56 -14.64 56 -16 56 C-16 53.36 -16 50.72 -16 48 C-17.32 48 -18.64 48 -20 48 C-20 37.44 -20 26.88 -20 16 C-18.68 16 -17.36 16 -16 16 C-16 13.36 -16 10.72 -16 8 C-14.68 8 -13.36 8 -12 8 C-12 6.68 -12 5.36 -12 4 C-8.04 4 -4.08 4 0 4 C0 2.68 0 1.36 0 0 Z " fill="#D2A285" transform="translate(80,136)"/>
<path d="M0 0 C2.64 0 5.28 0 8 0 C8 1.32 8 2.64 8 4 C9.32 4 10.64 4 12 4 C12 10.6 12 17.2 12 24 C22.56 24 33.12 24 44 24 C44 27.96 44 31.92 44 36 C42.68 36 41.36 36 40 36 C40 38.64 40 41.28 40 44 C38.68 44 37.36 44 36 44 C36 45.32 36 46.64 36 48 C33.36 48 30.72 48 28 48 C28 49.32 28 50.64 28 52 C25.36 52 22.72 52 20 52 C20 53.32 20 54.64 20 56 C18.68 56 17.36 56 16 56 C16 57.32 16 58.64 16 60 C12.04 60 8.08 60 4 60 C4 61.32 4 62.64 4 64 C1.36 64 -1.28 64 -4 64 C-4 65.32 -4 66.64 -4 68 C-5.32 68 -6.64 68 -8 68 C-8 69.32 -8 70.64 -8 72 C-13.28 72 -18.56 72 -24 72 C-24 70.68 -24 69.36 -24 68 C-26.64 68 -29.28 68 -32 68 C-32 66.68 -32 65.36 -32 64 C-33.32 64 -34.64 64 -36 64 C-36 62.68 -36 61.36 -36 60 C-37.32 60 -38.64 60 -40 60 C-40 58.68 -40 57.36 -40 56 C-41.32 56 -42.64 56 -44 56 C-44 54.68 -44 53.36 -44 52 C-45.32 52 -46.64 52 -48 52 C-48 49.36 -48 46.72 -48 44 C-46.68 44 -45.36 44 -44 44 C-44 42.68 -44 41.36 -44 40 C-37.4 40 -30.8 40 -24 40 C-24 38.68 -24 37.36 -24 36 C-21.36 36 -18.72 36 -16 36 C-16 34.68 -16 33.36 -16 32 C-14.68 32 -13.36 32 -12 32 C-12 25.4 -12 18.8 -12 12 C-10.68 12 -9.36 12 -8 12 C-8 10.68 -8 9.36 -8 8 C-6.68 8 -5.36 8 -4 8 C-4 6.68 -4 5.36 -4 4 C-2.68 4 -1.36 4 0 4 C0 2.68 0 1.36 0 0 Z " fill="#D2B93E" transform="translate(88,44)"/>
<path d="M0 0 C5.28 0 10.56 0 16 0 C16 1.32 16 2.64 16 4 C17.32 4 18.64 4 20 4 C20 11.92 20 19.84 20 28 C18.68 28 17.36 28 16 28 C16 29.32 16 30.64 16 32 C10.72 32 5.44 32 0 32 C0 30.68 0 29.36 0 28 C-1.32 28 -2.64 28 -4 28 C-4 20.08 -4 12.16 -4 4 C-2.68 4 -1.36 4 0 4 C0 2.68 0 1.36 0 0 Z " fill="#6E5315" transform="translate(144,152)"/>
<path d="M0 0 C5.28 0 10.56 0 16 0 C16 1.32 16 2.64 16 4 C17.32 4 18.64 4 20 4 C20 11.92 20 19.84 20 28 C18.68 28 17.36 28 16 28 C16 29.32 16 30.64 16 32 C10.72 32 5.44 32 0 32 C0 30.68 0 29.36 0 28 C-1.32 28 -2.64 28 -4 28 C-4 20.08 -4 12.16 -4 4 C-2.68 4 -1.36 4 0 4 C0 2.68 0 1.36 0 0 Z " fill="#6E5315" transform="translate(96,152)"/>
<path d="M0 0 C2.64 0 5.28 0 8 0 C8 1.32 8 2.64 8 4 C9.32 4 10.64 4 12 4 C12 5.32 12 6.64 12 8 C13.32 8 14.64 8 16 8 C16 18.56 16 29.12 16 40 C14.68 40 13.36 40 12 40 C12 41.32 12 42.64 12 44 C9.36 44 6.72 44 4 44 C4 42.68 4 41.36 4 40 C2.68 40 1.36 40 0 40 C0 26.8 0 13.6 0 0 Z " fill="#735B21" transform="translate(160,44)"/>
<path d="M0 0 C2.64 0 5.28 0 8 0 C8 13.2 8 26.4 8 40 C6.68 40 5.36 40 4 40 C4 41.32 4 42.64 4 44 C1.36 44 -1.28 44 -4 44 C-4 42.68 -4 41.36 -4 40 C-5.32 40 -6.64 40 -8 40 C-8 29.44 -8 18.88 -8 8 C-6.68 8 -5.36 8 -4 8 C-4 6.68 -4 5.36 -4 4 C-2.68 4 -1.36 4 0 4 C0 2.68 0 1.36 0 0 Z " fill="#735B21" transform="translate(88,44)"/>
<path d="M0 0 C31.68 0 63.36 0 96 0 C96 1.32 96 2.64 96 4 C64.32 4 32.64 4 0 4 C0 2.68 0 1.36 0 0 Z " fill="#CEF2FF" transform="translate(80,200)"/>
<path d="M0 0 C2.64 0 5.28 0 8 0 C8 1.32 8 2.64 8 4 C9.32 4 10.64 4 12 4 C12 6.64 12 9.28 12 12 C10.68 12 9.36 12 8 12 C8 13.32 8 14.64 8 16 C5.36 16 2.72 16 0 16 C0 14.68 0 13.36 0 12 C-1.32 12 -2.64 12 -4 12 C-4 9.36 -4 6.72 -4 4 C-2.68 4 -1.36 4 0 4 C0 2.68 0 1.36 0 0 Z " fill="#46350D" transform="translate(148,116)"/>
<path d="M0 0 C2.64 0 5.28 0 8 0 C8 1.32 8 2.64 8 4 C9.32 4 10.64 4 12 4 C12 6.64 12 9.28 12 12 C10.68 12 9.36 12 8 12 C8 13.32 8 14.64 8 16 C5.36 16 2.72 16 0 16 C0 14.68 0 13.36 0 12 C-1.32 12 -2.64 12 -4 12 C-4 9.36 -4 6.72 -4 4 C-2.68 4 -1.36 4 0 4 C0 2.68 0 1.36 0 0 Z " fill="#46350D" transform="translate(100,116)"/>
<path d="M0 0 C1.32 0 2.64 0 4 0 C4 7.92 4 15.84 4 24 C-1.28 24 -6.56 24 -12 24 C-12 22.68 -12 21.36 -12 20 C-8.04 20 -4.08 20 0 20 C0 13.4 0 6.8 0 0 Z " fill="#CEF2FF" transform="translate(156,48)"/>
<path d="M0 0 C1.32 0 2.64 0 4 0 C4 6.6 4 13.2 4 20 C7.96 20 11.92 20 16 20 C16 21.32 16 22.64 16 24 C10.72 24 5.44 24 0 24 C0 16.08 0 8.16 0 0 Z " fill="#CEF2FF" transform="translate(96,48)"/>
<path d="M0 0 C1.32 0 2.64 0 4 0 C4 10.56 4 21.12 4 32 C2.68 32 1.36 32 0 32 C0 21.44 0 10.88 0 0 Z " fill="#CEF2FF" transform="translate(192,152)"/>
<path d="M0 0 C1.32 0 2.64 0 4 0 C4 10.56 4 21.12 4 32 C2.68 32 1.36 32 0 32 C0 21.44 0 10.88 0 0 Z " fill="#CEF2FF" transform="translate(60,152)"/>
<path d="M0 0 C10.56 0 21.12 0 32 0 C32 1.32 32 2.64 32 4 C21.44 4 10.88 4 0 4 C0 2.68 0 1.36 0 0 Z " fill="#CEF2FF" transform="translate(112,64)"/>
<path d="M0 0 C1.32 0 2.64 0 4 0 C4 6.6 4 13.2 4 20 C5.32 20 6.64 20 8 20 C8 21.32 8 22.64 8 24 C5.36 24 2.72 24 0 24 C0 16.08 0 8.16 0 0 Z " fill="#CEF2FF" transform="translate(176,56)"/>
<path d="M0 0 C1.32 0 2.64 0 4 0 C4 7.92 4 15.84 4 24 C1.36 24 -1.28 24 -4 24 C-4 22.68 -4 21.36 -4 20 C-2.68 20 -1.36 20 0 20 C0 13.4 0 6.8 0 0 Z " fill="#CEF2FF" transform="translate(76,56)"/>
<path d="M0 0 C1.32 0 2.64 0 4 0 C4 3.96 4 7.92 4 12 C5.32 12 6.64 12 8 12 C8 13.32 8 14.64 8 16 C5.36 16 2.72 16 0 16 C0 10.72 0 5.44 0 0 Z " fill="#CEF2FF" transform="translate(176,124)"/>
<path d="M0 0 C1.32 0 2.64 0 4 0 C4 5.28 4 10.56 4 16 C1.36 16 -1.28 16 -4 16 C-4 14.68 -4 13.36 -4 12 C-2.68 12 -1.36 12 0 12 C0 8.04 0 4.08 0 0 Z " fill="#CEF2FF" transform="translate(76,124)"/>
<path d="M0 0 C6.6 0 13.2 0 20 0 C20 1.32 20 2.64 20 4 C13.4 4 6.8 4 0 4 C0 2.68 0 1.36 0 0 Z " fill="#CEF2FF" transform="translate(192,84)"/>
<path d="M0 0 C6.6 0 13.2 0 20 0 C20 1.32 20 2.64 20 4 C13.4 4 6.8 4 0 4 C0 2.68 0 1.36 0 0 Z " fill="#CEF2FF" transform="translate(44,84)"/>
<path d="M0 0 C2.64 0 5.28 0 8 0 C8 1.32 8 2.64 8 4 C5.36 4 2.72 4 0 4 C0 2.68 0 1.36 0 0 Z " fill="#CEF2FF" transform="translate(176,196)"/>
<path d="M0 0 C2.64 0 5.28 0 8 0 C8 1.32 8 2.64 8 4 C5.36 4 2.72 4 0 4 C0 2.68 0 1.36 0 0 Z " fill="#CEF2FF" transform="translate(72,196)"/>
<path d="M0 0 C1.32 0 2.64 0 4 0 C4 2.64 4 5.28 4 8 C2.68 8 1.36 8 0 8 C0 5.36 0 2.72 0 0 Z " fill="#CEF2FF" transform="translate(188,184)"/>
<path d="M0 0 C1.32 0 2.64 0 4 0 C4 2.64 4 5.28 4 8 C2.68 8 1.36 8 0 8 C0 5.36 0 2.72 0 0 Z " fill="#CEF2FF" transform="translate(64,184)"/>
<path d="M0 0 C1.32 0 2.64 0 4 0 C4 2.64 4 5.28 4 8 C2.68 8 1.36 8 0 8 C0 5.36 0 2.72 0 0 Z " fill="#CEF2FF" transform="translate(188,144)"/>
<path d="M0 0 C1.32 0 2.64 0 4 0 C4 2.64 4 5.28 4 8 C2.68 8 1.36 8 0 8 C0 5.36 0 2.72 0 0 Z " fill="#CEF2FF" transform="translate(64,144)"/>
<path d="M0 0 C1.32 0 2.64 0 4 0 C4 2.64 4 5.28 4 8 C2.68 8 1.36 8 0 8 C0 5.36 0 2.72 0 0 Z " fill="#CEF2FF" transform="translate(180,116)"/>
<path d="M0 0 C1.32 0 2.64 0 4 0 C4 2.64 4 5.28 4 8 C2.68 8 1.36 8 0 8 C0 5.36 0 2.72 0 0 Z " fill="#CEF2FF" transform="translate(72,116)"/>
<path d="M0 0 C2.64 0 5.28 0 8 0 C8 1.32 8 2.64 8 4 C5.36 4 2.72 4 0 4 C0 2.68 0 1.36 0 0 Z " fill="#CEF2FF" transform="translate(184,112)"/>
<path d="M0 0 C2.64 0 5.28 0 8 0 C8 1.32 8 2.64 8 4 C5.36 4 2.72 4 0 4 C0 2.68 0 1.36 0 0 Z " fill="#CEF2FF" transform="translate(64,112)"/>
<path d="M0 0 C2.64 0 5.28 0 8 0 C8 1.32 8 2.64 8 4 C5.36 4 2.72 4 0 4 C0 2.68 0 1.36 0 0 Z " fill="#CEF2FF" transform="translate(192,108)"/>
<path d="M0 0 C2.64 0 5.28 0 8 0 C8 1.32 8 2.64 8 4 C5.36 4 2.72 4 0 4 C0 2.68 0 1.36 0 0 Z " fill="#CEF2FF" transform="translate(56,108)"/>
<path d="M0 0 C1.32 0 2.64 0 4 0 C4 2.64 4 5.28 4 8 C2.68 8 1.36 8 0 8 C0 5.36 0 2.72 0 0 Z " fill="#CEF2FF" transform="translate(212,88)"/>
<path d="M0 0 C1.32 0 2.64 0 4 0 C4 2.64 4 5.28 4 8 C2.68 8 1.36 8 0 8 C0 5.36 0 2.72 0 0 Z " fill="#CEF2FF" transform="translate(40,88)"/>
<path d="M0 0 C2.64 0 5.28 0 8 0 C8 1.32 8 2.64 8 4 C5.36 4 2.72 4 0 4 C0 2.68 0 1.36 0 0 Z " fill="#CEF2FF" transform="translate(184,80)"/>
<path d="M0 0 C2.64 0 5.28 0 8 0 C8 1.32 8 2.64 8 4 C5.36 4 2.72 4 0 4 C0 2.68 0 1.36 0 0 Z " fill="#CEF2FF" transform="translate(64,80)"/>
<path d="M0 0 C2.64 0 5.28 0 8 0 C8 1.32 8 2.64 8 4 C5.36 4 2.72 4 0 4 C0 2.68 0 1.36 0 0 Z " fill="#CEF2FF" transform="translate(160,44)"/>
<path d="M0 0 C2.64 0 5.28 0 8 0 C8 1.32 8 2.64 8 4 C5.36 4 2.72 4 0 4 C0 2.68 0 1.36 0 0 Z " fill="#CEF2FF" transform="translate(88,44)"/>
</svg>
